<svg width="273" height="33" viewBox="0 0 273 33" fill="none" xmlns="http://www.w3.org/2000/svg">
<path d="M11.591 12.077C12.2015 12.4204 14.067 13.1454 14.898 13.4506C16.4104 14.0396 17.6805 14.1849 18.4456 13.8836C18.5023 13.8569 18.5578 13.8313 18.612 13.8067C18.5596 13.8349 18.5041 13.8606 18.4456 13.8836C16.429 14.8331 12.9531 17.1013 13.9823 19.1996C12.6934 20.2341 9.65771 22.2522 7.21566 22.2522C4.9771 22.2522 3.42981 21.7555 2.53505 21.0312C1.46665 20.1663 0.499895 18.8434 0.5 16.554C0.500114 14.0611 1.72103 12.5348 2.53505 11.9752C3.80695 11.1009 4.4669 10.6016 7.26653 10.6016C8.79282 10.6016 10.777 11.6191 11.591 12.077Z" fill="#68B12D"/>
<path d="M17.5776 19.1998C15.845 18.5236 14.8026 18.6911 14.1689 19.1998C13.1107 17.0426 16.8144 14.7057 18.7986 13.8069C19.4599 13.4508 20.8844 12.3824 20.8844 12.3824C22.5124 11.0596 24.0082 10.5 25.5141 10.5C27.3966 10.5 28.7703 10.5509 30.8054 12.2297C32.4334 13.5728 32.535 15.1806 32.535 16.5034C32.535 17.9279 32.0772 19.5409 29.8387 21.2348C27.9562 22.6594 24.9037 22.3202 23.6827 21.8453C19.867 20.0647 19.6634 20.0138 17.5776 19.1998Z" fill="#3D85A8"/>
<ellipse cx="16.4859" cy="6.48586" rx="4.98587" ry="4.98586" fill="#68B12D"/>
<ellipse cx="16.4859" cy="26.4859" rx="4.98587" ry="4.98586" fill="#3D85A8"/>
<path d="M42.5558 23.5V8.95455H48.0103C49.1277 8.95455 50.0652 9.14867 50.8228 9.53693C51.5851 9.92519 52.1604 10.4697 52.5487 11.1705C52.9416 11.8665 53.1381 12.6785 53.1381 13.6065C53.1381 14.5393 52.9393 15.349 52.5415 16.0355C52.1486 16.7173 51.5685 17.2453 50.8015 17.6193C50.0344 17.9886 49.0922 18.1733 47.9748 18.1733H44.0898V15.9858H47.6197C48.2731 15.9858 48.8081 15.8958 49.2248 15.7159C49.6415 15.5312 49.9492 15.2637 50.1481 14.9134C50.3517 14.5582 50.4535 14.1226 50.4535 13.6065C50.4535 13.0904 50.3517 12.6501 50.1481 12.2855C49.9445 11.9162 49.6344 11.6368 49.2177 11.4474C48.801 11.2533 48.2636 11.1562 47.6055 11.1562H45.1907V23.5H42.5558ZM50.07 16.9091L53.6708 23.5H50.7305L47.1935 16.9091H50.07ZM60.1232 23.7131C59.0295 23.7131 58.0849 23.4858 57.2894 23.0312C56.4987 22.572 55.8903 21.9233 55.4641 21.0852C55.038 20.2424 54.8249 19.2505 54.8249 18.1094C54.8249 16.9872 55.038 16.0024 55.4641 15.1548C55.895 14.3026 56.4963 13.6397 57.2681 13.1662C58.0399 12.688 58.9466 12.4489 59.9883 12.4489C60.6606 12.4489 61.2951 12.5578 61.8917 12.7756C62.493 12.9886 63.0233 13.3201 63.4826 13.7699C63.9466 14.2197 64.3112 14.7926 64.5763 15.4886C64.8415 16.1799 64.9741 17.0038 64.9741 17.9602V18.7486H56.0323V17.0156H62.5096C62.5049 16.5232 62.3983 16.0852 62.19 15.7017C61.9817 15.3134 61.6905 15.008 61.3164 14.7855C60.9471 14.563 60.5162 14.4517 60.0238 14.4517C59.4982 14.4517 59.0366 14.5795 58.6388 14.8352C58.2411 15.0862 57.931 15.4176 57.7085 15.8295C57.4906 16.2367 57.3794 16.6842 57.3746 17.1719V18.6847C57.3746 19.3191 57.4906 19.8636 57.7227 20.3182C57.9547 20.768 58.279 21.1136 58.6957 21.3551C59.1123 21.5919 59.6 21.7102 60.1587 21.7102C60.5328 21.7102 60.8713 21.6581 61.1744 21.554C61.4774 21.4451 61.7402 21.2865 61.9627 21.0781C62.1853 20.8698 62.3533 20.6117 62.467 20.304L64.8675 20.5739C64.716 21.2083 64.4272 21.7623 64.0011 22.2358C63.5797 22.7045 63.0399 23.0691 62.3817 23.3295C61.7236 23.5852 60.9708 23.7131 60.1232 23.7131ZM69.7202 17.108V23.5H67.1491V12.5909H69.6065V14.4446H69.7344C69.9853 13.8338 70.3854 13.3485 70.9347 12.9886C71.4886 12.6288 72.1728 12.4489 72.9872 12.4489C73.7401 12.4489 74.3958 12.6098 74.9545 12.9318C75.518 13.2538 75.9536 13.7202 76.2614 14.331C76.5739 14.9418 76.7277 15.6828 76.723 16.554V23.5H74.152V16.9517C74.152 16.2225 73.9626 15.652 73.5838 15.2401C73.2098 14.8281 72.6913 14.6222 72.0284 14.6222C71.5786 14.6222 71.1785 14.7216 70.8281 14.9205C70.4825 15.1146 70.2102 15.3963 70.0114 15.7656C69.8172 16.1349 69.7202 16.5824 69.7202 17.108ZM84.1662 23.7131C83.0724 23.7131 82.1278 23.4858 81.3324 23.0312C80.5417 22.572 79.9332 21.9233 79.5071 21.0852C79.081 20.2424 78.8679 19.2505 78.8679 18.1094C78.8679 16.9872 79.081 16.0024 79.5071 15.1548C79.938 14.3026 80.5393 13.6397 81.3111 13.1662C82.0829 12.688 82.9896 12.4489 84.0312 12.4489C84.7036 12.4489 85.3381 12.5578 85.9347 12.7756C86.536 12.9886 87.0663 13.3201 87.5256 13.7699C87.9896 14.2197 88.3542 14.7926 88.6193 15.4886C88.8845 16.1799 89.017 17.0038 89.017 17.9602V18.7486H80.0753V17.0156H86.5526C86.5478 16.5232 86.4413 16.0852 86.233 15.7017C86.0246 15.3134 85.7334 15.008 85.3594 14.7855C84.9901 14.563 84.5592 14.4517 84.0668 14.4517C83.5412 14.4517 83.0795 14.5795 82.6818 14.8352C82.2841 15.0862 81.974 15.4176 81.7514 15.8295C81.5336 16.2367 81.4223 16.6842 81.4176 17.1719V18.6847C81.4176 19.3191 81.5336 19.8636 81.7656 20.3182C81.9976 20.768 82.322 21.1136 82.7386 21.3551C83.1553 21.5919 83.643 21.7102 84.2017 21.7102C84.5758 21.7102 84.9143 21.6581 85.2173 21.554C85.5204 21.4451 85.7831 21.2865 86.0057 21.0781C86.2282 20.8698 86.3963 20.6117 86.5099 20.304L88.9105 20.5739C88.759 21.2083 88.4702 21.7623 88.044 22.2358C87.6226 22.7045 87.0829 23.0691 86.4247 23.3295C85.7666 23.5852 85.0137 23.7131 84.1662 23.7131ZM93.3849 23.5L90.3026 12.5909H92.9233L94.8409 20.2614H94.9403L96.9006 12.5909H99.4929L101.453 20.2188H101.56L103.449 12.5909H106.077L102.987 23.5H100.31L98.2642 16.1278H98.1151L96.0696 23.5H93.3849ZM111.011 23.7202C110.32 23.7202 109.697 23.5971 109.143 23.3509C108.594 23.0999 108.158 22.7306 107.836 22.2429C107.519 21.7552 107.36 21.1539 107.36 20.4389C107.36 19.8234 107.474 19.3144 107.701 18.9119C107.929 18.5095 108.239 18.1875 108.632 17.946C109.025 17.7045 109.467 17.5223 109.96 17.3991C110.457 17.2713 110.971 17.179 111.501 17.1222C112.14 17.0559 112.659 16.9967 113.056 16.9446C113.454 16.8878 113.743 16.8026 113.923 16.6889C114.108 16.5705 114.2 16.3883 114.2 16.142V16.0994C114.2 15.5644 114.041 15.1501 113.724 14.8565C113.407 14.563 112.95 14.4162 112.353 14.4162C111.724 14.4162 111.224 14.5535 110.855 14.8281C110.49 15.1027 110.244 15.4271 110.116 15.8011L107.716 15.4602C107.905 14.7973 108.217 14.2434 108.653 13.7983C109.089 13.3485 109.621 13.0123 110.251 12.7898C110.881 12.5625 111.577 12.4489 112.339 12.4489C112.865 12.4489 113.388 12.5104 113.909 12.6335C114.43 12.7566 114.905 12.9602 115.336 13.2443C115.767 13.5237 116.113 13.9048 116.373 14.3878C116.638 14.8707 116.771 15.4744 116.771 16.1989V23.5H114.299V22.0014H114.214C114.058 22.3045 113.838 22.5885 113.554 22.8537C113.274 23.1141 112.922 23.3248 112.495 23.4858C112.074 23.642 111.579 23.7202 111.011 23.7202ZM111.679 21.831C112.195 21.831 112.642 21.7292 113.021 21.5256C113.4 21.3172 113.691 21.0426 113.895 20.7017C114.103 20.3608 114.207 19.9891 114.207 19.5866V18.3011C114.127 18.3674 113.989 18.429 113.795 18.4858C113.606 18.5426 113.393 18.5923 113.156 18.6349C112.919 18.6776 112.685 18.7154 112.453 18.7486C112.221 18.7817 112.02 18.8101 111.849 18.8338C111.466 18.8859 111.122 18.9711 110.819 19.0895C110.516 19.2079 110.277 19.3736 110.102 19.5866C109.927 19.795 109.839 20.0649 109.839 20.3963C109.839 20.8698 110.012 21.2273 110.358 21.4688C110.703 21.7102 111.144 21.831 111.679 21.831ZM119.47 23.5V8.95455H122.041V14.3949H122.147C122.28 14.1297 122.467 13.848 122.708 13.5497C122.95 13.2467 123.277 12.9886 123.689 12.7756C124.1 12.5578 124.626 12.4489 125.265 12.4489C126.108 12.4489 126.868 12.6643 127.545 13.0952C128.227 13.5213 128.767 14.1534 129.164 14.9915C129.567 15.8248 129.768 16.8475 129.768 18.0597C129.768 19.2576 129.572 20.2756 129.179 21.1136C128.786 21.9517 128.251 22.5909 127.574 23.0312C126.896 23.4716 126.129 23.6918 125.272 23.6918C124.647 23.6918 124.129 23.5876 123.717 23.3793C123.305 23.1709 122.974 22.92 122.723 22.6264C122.476 22.3281 122.285 22.0464 122.147 21.7812H121.998V23.5H119.47ZM121.991 18.0455C121.991 18.7509 122.091 19.3688 122.289 19.8991C122.493 20.4295 122.784 20.8437 123.163 21.142C123.547 21.4356 124.011 21.5824 124.555 21.5824C125.123 21.5824 125.599 21.4309 125.983 21.1278C126.366 20.8201 126.655 20.401 126.849 19.8707C127.048 19.3357 127.147 18.7273 127.147 18.0455C127.147 17.3684 127.05 16.767 126.856 16.2415C126.662 15.7159 126.373 15.304 125.99 15.0057C125.606 14.7074 125.128 14.5582 124.555 14.5582C124.006 14.5582 123.539 14.7027 123.156 14.9915C122.772 15.2803 122.481 15.6851 122.282 16.206C122.088 16.7268 121.991 17.34 121.991 18.0455ZM134.525 8.95455V23.5H131.954V8.95455H134.525ZM142.243 23.5V8.95455H151.703V11.1634H144.878V15.1122H151.213V17.321H144.878V21.2912H151.76V23.5H142.243ZM156.849 17.108V23.5H154.278V12.5909H156.735V14.4446H156.863C157.114 13.8338 157.514 13.3485 158.064 12.9886C158.618 12.6288 159.302 12.4489 160.116 12.4489C160.869 12.4489 161.525 12.6098 162.083 12.9318C162.647 13.2538 163.083 13.7202 163.39 14.331C163.703 14.9418 163.857 15.6828 163.852 16.554V23.5H161.281V16.9517C161.281 16.2225 161.092 15.652 160.713 15.2401C160.339 14.8281 159.82 14.6222 159.157 14.6222C158.708 14.6222 158.307 14.7216 157.957 14.9205C157.611 15.1146 157.339 15.3963 157.14 15.7656C156.946 16.1349 156.849 16.5824 156.849 17.108ZM171.295 23.7131C170.201 23.7131 169.257 23.4858 168.461 23.0312C167.671 22.572 167.062 21.9233 166.636 21.0852C166.21 20.2424 165.997 19.2505 165.997 18.1094C165.997 16.9872 166.21 16.0024 166.636 15.1548C167.067 14.3026 167.668 13.6397 168.44 13.1662C169.212 12.688 170.118 12.4489 171.16 12.4489C171.833 12.4489 172.467 12.5578 173.064 12.7756C173.665 12.9886 174.195 13.3201 174.654 13.7699C175.118 14.2197 175.483 14.7926 175.748 15.4886C176.013 16.1799 176.146 17.0038 176.146 17.9602V18.7486H167.204V17.0156H173.681C173.677 16.5232 173.57 16.0852 173.362 15.7017C173.154 15.3134 172.862 15.008 172.488 14.7855C172.119 14.563 171.688 14.4517 171.196 14.4517C170.67 14.4517 170.208 14.5795 169.811 14.8352C169.413 15.0862 169.103 15.4176 168.88 15.8295C168.663 16.2367 168.551 16.6842 168.547 17.1719V18.6847C168.547 19.3191 168.663 19.8636 168.895 20.3182C169.127 20.768 169.451 21.1136 169.868 21.3551C170.284 21.5919 170.772 21.7102 171.331 21.7102C171.705 21.7102 172.043 21.6581 172.346 21.554C172.649 21.4451 172.912 21.2865 173.135 21.0781C173.357 20.8698 173.525 20.6117 173.639 20.304L176.039 20.5739C175.888 21.2083 175.599 21.7623 175.173 22.2358C174.752 22.7045 174.212 23.0691 173.554 23.3295C172.895 23.5852 172.143 23.7131 171.295 23.7131ZM178.321 23.5V12.5909H180.814V14.4091H180.928C181.126 13.7794 181.467 13.294 181.95 12.9531C182.438 12.6075 182.994 12.4347 183.619 12.4347C183.761 12.4347 183.92 12.4418 184.095 12.456C184.275 12.4654 184.424 12.482 184.543 12.5057V14.8707C184.434 14.8329 184.261 14.7997 184.024 14.7713C183.792 14.7382 183.567 14.7216 183.349 14.7216C182.881 14.7216 182.459 14.8234 182.085 15.027C181.716 15.2259 181.425 15.5028 181.212 15.858C180.999 16.2131 180.892 16.6226 180.892 17.0866V23.5H178.321ZM190.546 27.8182C189.623 27.8182 188.829 27.6927 188.167 27.4418C187.504 27.1955 186.971 26.8641 186.569 26.4474C186.166 26.0308 185.887 25.5691 185.73 25.0625L188.046 24.5014C188.15 24.7145 188.301 24.9252 188.5 25.1335C188.699 25.3466 188.967 25.5218 189.303 25.6591C189.644 25.8011 190.072 25.8722 190.588 25.8722C191.318 25.8722 191.921 25.6946 192.4 25.3395C192.878 24.9891 193.117 24.4115 193.117 23.6065V21.5398H192.989C192.856 21.8049 192.662 22.0772 192.407 22.3565C192.156 22.6359 191.822 22.8703 191.405 23.0597C190.993 23.2491 190.475 23.3438 189.85 23.3438C189.012 23.3438 188.252 23.1473 187.57 22.7543C186.893 22.3565 186.353 21.7647 185.951 20.9787C185.553 20.188 185.354 19.1984 185.354 18.0099C185.354 16.812 185.553 15.8011 185.951 14.9773C186.353 14.1487 186.895 13.5213 187.577 13.0952C188.259 12.6643 189.019 12.4489 189.857 12.4489C190.496 12.4489 191.022 12.5578 191.434 12.7756C191.85 12.9886 192.182 13.2467 192.428 13.5497C192.674 13.848 192.861 14.1297 192.989 14.3949H193.131V12.5909H195.667V23.6776C195.667 24.6103 195.444 25.3821 194.999 25.9929C194.554 26.6037 193.945 27.0606 193.174 27.3636C192.402 27.6667 191.526 27.8182 190.546 27.8182ZM190.567 21.3267C191.112 21.3267 191.576 21.1941 191.959 20.929C192.343 20.6638 192.634 20.2827 192.833 19.7855C193.032 19.2884 193.131 18.6918 193.131 17.9957C193.131 17.3092 193.032 16.7079 192.833 16.1918C192.639 15.6757 192.35 15.2756 191.966 14.9915C191.587 14.7027 191.121 14.5582 190.567 14.5582C189.994 14.5582 189.516 14.7074 189.132 15.0057C188.749 15.304 188.46 15.7135 188.266 16.2344C188.072 16.7505 187.975 17.3376 187.975 17.9957C187.975 18.6634 188.072 19.2481 188.266 19.75C188.465 20.2472 188.756 20.6354 189.14 20.9148C189.528 21.1894 190.004 21.3267 190.567 21.3267ZM199.9 27.5909C199.549 27.5909 199.225 27.5625 198.926 27.5057C198.633 27.4536 198.399 27.392 198.223 27.321L198.82 25.3182C199.194 25.4271 199.528 25.4792 199.821 25.4744C200.115 25.4697 200.373 25.3774 200.596 25.1974C200.823 25.0223 201.015 24.7287 201.171 24.3168L201.391 23.7273L197.435 12.5909H200.162L202.676 20.8295H202.79L205.311 12.5909H208.046L203.678 24.821C203.474 25.3987 203.204 25.8935 202.868 26.3054C202.532 26.7221 202.12 27.0393 201.632 27.2571C201.15 27.4796 200.572 27.5909 199.9 27.5909ZM224.644 13.5994C224.525 13.2159 224.362 12.8726 224.154 12.5696C223.95 12.2618 223.704 11.9991 223.415 11.7812C223.131 11.5634 222.804 11.4001 222.435 11.2912C222.066 11.1776 221.663 11.1207 221.228 11.1207C220.446 11.1207 219.75 11.3172 219.14 11.7102C218.529 12.1032 218.048 12.6809 217.698 13.4432C217.352 14.2008 217.179 15.1241 217.179 16.2131C217.179 17.3116 217.352 18.242 217.698 19.0043C218.043 19.7666 218.524 20.3466 219.14 20.7443C219.755 21.1373 220.47 21.3338 221.284 21.3338C222.023 21.3338 222.662 21.1918 223.202 20.9077C223.747 20.6236 224.166 20.2211 224.459 19.7003C224.753 19.1747 224.9 18.5592 224.9 17.8537L225.496 17.946H221.547V15.8864H227.449V17.6335C227.449 18.8788 227.184 19.956 226.654 20.8651C226.123 21.7741 225.394 22.4749 224.466 22.9673C223.538 23.455 222.473 23.6989 221.27 23.6989C219.93 23.6989 218.754 23.3982 217.74 22.7969C216.732 22.1908 215.944 21.3314 215.375 20.2188C214.812 19.1013 214.53 17.7756 214.53 16.2415C214.53 15.0672 214.696 14.0185 215.027 13.0952C215.364 12.1719 215.832 11.3883 216.434 10.7443C217.035 10.0956 217.74 9.60322 218.55 9.26705C219.36 8.92614 220.24 8.75568 221.192 8.75568C221.997 8.75568 222.748 8.87405 223.444 9.1108C224.14 9.3428 224.757 9.67424 225.297 10.1051C225.842 10.536 226.289 11.0473 226.64 11.6392C226.99 12.2311 227.22 12.8845 227.328 13.5994H224.644ZM229.884 23.5V12.5909H232.376V14.4091H232.49C232.689 13.7794 233.03 13.294 233.513 12.9531C234 12.6075 234.557 12.4347 235.182 12.4347C235.324 12.4347 235.482 12.4418 235.658 12.456C235.838 12.4654 235.987 12.482 236.105 12.5057V14.8707C235.996 14.8329 235.823 14.7997 235.587 14.7713C235.355 14.7382 235.13 14.7216 234.912 14.7216C234.443 14.7216 234.022 14.8234 233.648 15.027C233.278 15.2259 232.987 15.5028 232.774 15.858C232.561 16.2131 232.455 16.6226 232.455 17.0866V23.5H229.884ZM242.123 23.7131C241.057 23.7131 240.134 23.4787 239.353 23.0099C238.571 22.5412 237.965 21.8854 237.534 21.0426C237.108 20.1998 236.895 19.215 236.895 18.0881C236.895 16.9612 237.108 15.974 237.534 15.1264C237.965 14.2789 238.571 13.6207 239.353 13.152C240.134 12.6832 241.057 12.4489 242.123 12.4489C243.188 12.4489 244.111 12.6832 244.892 13.152C245.674 13.6207 246.277 14.2789 246.703 15.1264C247.134 15.974 247.35 16.9612 247.35 18.0881C247.35 19.215 247.134 20.1998 246.703 21.0426C246.277 21.8854 245.674 22.5412 244.892 23.0099C244.111 23.4787 243.188 23.7131 242.123 23.7131ZM242.137 21.6534C242.714 21.6534 243.197 21.4948 243.586 21.1776C243.974 20.8556 244.263 20.4247 244.452 19.8849C244.646 19.3452 244.743 18.7438 244.743 18.081C244.743 17.4134 244.646 16.8097 244.452 16.2699C244.263 15.7254 243.974 15.2921 243.586 14.9702C243.197 14.6482 242.714 14.4872 242.137 14.4872C241.545 14.4872 241.052 14.6482 240.659 14.9702C240.271 15.2921 239.98 15.7254 239.786 16.2699C239.596 16.8097 239.502 17.4134 239.502 18.081C239.502 18.7438 239.596 19.3452 239.786 19.8849C239.98 20.4247 240.271 20.8556 240.659 21.1776C241.052 21.4948 241.545 21.6534 242.137 21.6534ZM256.485 18.9119V12.5909H259.056V23.5H256.563V21.5611H256.45C256.203 22.1719 255.799 22.6714 255.235 23.0597C254.676 23.4479 253.987 23.642 253.168 23.642C252.453 23.642 251.821 23.4834 251.272 23.1662C250.728 22.8442 250.301 22.3778 249.994 21.767C249.686 21.1515 249.532 20.4081 249.532 19.5369V12.5909H252.103V19.1392C252.103 19.8305 252.292 20.3797 252.671 20.7869C253.05 21.1941 253.547 21.3977 254.163 21.3977C254.541 21.3977 254.908 21.3054 255.263 21.1207C255.619 20.9361 255.91 20.6615 256.137 20.2969C256.369 19.9276 256.485 19.4659 256.485 18.9119ZM261.7 27.5909V12.5909H264.228V14.3949H264.377C264.51 14.1297 264.697 13.848 264.939 13.5497C265.18 13.2467 265.507 12.9886 265.919 12.7756C266.331 12.5578 266.856 12.4489 267.495 12.4489C268.338 12.4489 269.098 12.6643 269.775 13.0952C270.457 13.5213 270.997 14.1534 271.395 14.9915C271.797 15.8248 271.998 16.8475 271.998 18.0597C271.998 19.2576 271.802 20.2756 271.409 21.1136C271.016 21.9517 270.481 22.5909 269.804 23.0312C269.127 23.4716 268.359 23.6918 267.502 23.6918C266.877 23.6918 266.359 23.5876 265.947 23.3793C265.535 23.1709 265.204 22.92 264.953 22.6264C264.707 22.3281 264.515 22.0464 264.377 21.7812H264.271V27.5909H261.7ZM264.221 18.0455C264.221 18.7509 264.321 19.3688 264.52 19.8991C264.723 20.4295 265.014 20.8437 265.393 21.142C265.777 21.4356 266.241 21.5824 266.785 21.5824C267.353 21.5824 267.829 21.4309 268.213 21.1278C268.596 20.8201 268.885 20.401 269.079 19.8707C269.278 19.3357 269.377 18.7273 269.377 18.0455C269.377 17.3684 269.28 16.767 269.086 16.2415C268.892 15.7159 268.603 15.304 268.22 15.0057C267.836 14.7074 267.358 14.5582 266.785 14.5582C266.236 14.5582 265.77 14.7027 265.386 14.9915C265.002 15.2803 264.711 15.6851 264.512 16.206C264.318 16.7268 264.221 17.34 264.221 18.0455Z" fill="#424244"/>
</svg>
