<svg width="20" height="21" viewBox="0 0 20 21" fill="none" xmlns="http://www.w3.org/2000/svg">
<path d="M3 2.50244H5V1.50244C5 1.23722 5.10536 0.982871 5.29289 0.795335C5.48043 0.607798 5.73478 0.502441 6 0.502441C6.26522 0.502441 6.51957 0.607798 6.70711 0.795335C6.89464 0.982871 7 1.23722 7 1.50244V2.50244H13V1.50244C13 1.23722 13.1054 0.982871 13.2929 0.795335C13.4804 0.607798 13.7348 0.502441 14 0.502441C14.2652 0.502441 14.5196 0.607798 14.7071 0.795335C14.8946 0.982871 15 1.23722 15 1.50244V2.50244H17C17.7956 2.50244 18.5587 2.81851 19.1213 3.38112C19.6839 3.94373 20 4.70679 20 5.50244V17.5024C20 18.2981 19.6839 19.0612 19.1213 19.6238C18.5587 20.1864 17.7956 20.5024 17 20.5024H3C2.20435 20.5024 1.44129 20.1864 0.878679 19.6238C0.316071 19.0612 0 18.2981 0 17.5024V5.50244C0 4.70679 0.316071 3.94373 0.878679 3.38112C1.44129 2.81851 2.20435 2.50244 3 2.50244ZM2 17.5024C2 17.7677 2.10536 18.022 2.29289 18.2095C2.48043 18.3971 2.73478 18.5024 3 18.5024H17C17.2652 18.5024 17.5196 18.3971 17.7071 18.2095C17.8946 18.022 18 17.7677 18 17.5024V10.5024H2V17.5024ZM2 8.50244H18V5.50244C18 5.23723 17.8946 4.98287 17.7071 4.79533C17.5196 4.6078 17.2652 4.50244 17 4.50244H15V5.50244C15 5.76766 14.8946 6.02201 14.7071 6.20955C14.5196 6.39708 14.2652 6.50244 14 6.50244C13.7348 6.50244 13.4804 6.39708 13.2929 6.20955C13.1054 6.02201 13 5.76766 13 5.50244V4.50244H7V5.50244C7 5.76766 6.89464 6.02201 6.70711 6.20955C6.51957 6.39708 6.26522 6.50244 6 6.50244C5.73478 6.50244 5.48043 6.39708 5.29289 6.20955C5.10536 6.02201 5 5.76766 5 5.50244V4.50244H3C2.73478 4.50244 2.48043 4.6078 2.29289 4.79533C2.10536 4.98287 2 5.23723 2 5.50244V8.50244Z" fill="#68B12D"/>
</svg>
