<svg width="81" height="80" viewBox="0 0 81 80" fill="none" xmlns="http://www.w3.org/2000/svg">
<rect x="0.666016" width="80" height="80.0025" rx="40" fill="#ECEEF2"/>
<path d="M14.1782 41.1666C13.3176 42.1272 13.3176 43.5815 14.1782 44.542L24.3477 55.8918C25.3553 57.0163 27.1172 57.0132 28.1208 55.8852C28.9759 54.9241 28.9733 53.4744 28.1149 52.5163L17.9454 41.1666C16.9402 40.0448 15.1834 40.0448 14.1782 41.1666ZM67.1489 24.1158C66.1401 22.9899 64.3768 22.9903 63.3685 24.1167L42.8037 47.0899C41.213 48.8668 38.4306 48.8659 36.8412 47.0878L31.5289 41.1449C30.5261 40.0231 28.7727 40.0159 27.7607 41.1295C26.8863 42.0918 26.8811 43.5595 27.7488 44.5279L36.8422 54.6766C38.432 56.4509 41.2106 56.4509 42.8004 54.6766L67.1488 27.5023C68.0123 26.5386 68.0123 25.0795 67.1489 24.1158ZM53.5796 27.4866C54.438 26.5285 54.4405 25.0788 53.5855 24.1178C52.5819 22.9897 50.8199 22.9866 49.8124 24.1111L37.931 37.3714C37.0681 38.3345 37.0707 39.7934 37.937 40.7535C38.9437 41.8691 40.6954 41.8661 41.6983 40.7469L53.5796 27.4866Z" fill="#424244"/>
</svg>
