<svg width="80" height="80" viewBox="0 0 80 80" fill="none" xmlns="http://www.w3.org/2000/svg">
<rect width="80" height="80.0025" rx="40" fill="#ECEEF2"/>
<g clip-path="url(#clip0_1_317)">
<path d="M38.5898 51.6887V40.9309L33.0168 35.3583C32.4535 34.795 32.4535 33.8821 33.0168 33.3192C33.5796 32.756 34.4926 32.756 35.0558 33.3192L40.0319 38.2953L45.008 33.3192C45.5708 32.756 46.4838 32.756 47.047 33.3192C47.6099 33.8821 47.6099 34.795 47.047 35.3583L41.4733 40.9316V51.6887H49.4578C49.7574 49.7115 50.7106 47.8615 52.1751 46.4739C53.8977 44.8413 55.2531 42.9165 56.2038 40.7526C57.1885 38.5114 57.6877 36.1244 57.6877 33.6576C57.6877 28.9789 55.876 24.5701 52.5867 21.2434C49.3 17.9197 44.9172 16.0586 40.2461 16.0026C40.1744 16.0018 40.104 16.0015 40.0326 16.0015C30.4288 16.0015 22.5285 23.7512 22.3772 33.3741C22.3381 35.8812 22.8134 38.3107 23.7912 40.5958C24.7338 42.7997 26.0943 44.76 27.8345 46.423C29.3257 47.8475 30.2969 49.7152 30.6031 51.6887H38.5898Z" fill="#424244"/>
<path d="M30.707 54.5723V57.1918C30.707 60.9469 33.7616 64.0015 37.5164 64.0015H42.5463C46.301 64.0015 49.356 60.9469 49.356 57.1918V54.5723H30.707Z" fill="#424244"/>
</g>
<defs>
<clipPath id="clip0_1_317">
<rect width="48" height="48" fill="white" transform="translate(16 16.0015)"/>
</clipPath>
</defs>
</svg>
