<svg width="81" height="80" viewBox="0 0 81 80" fill="none" xmlns="http://www.w3.org/2000/svg">
<rect x="0.666016" width="80" height="80.0025" rx="40" fill="#ECEEF2"/>
<path d="M50.5549 17.2951C50.0905 16.5491 49.1539 16.2496 48.3428 16.5876C47.5438 16.9205 47.0966 17.7767 47.2799 18.6227L47.4435 19.3777C47.6104 20.148 47.2999 20.925 46.7568 21.4962C46.2126 22.0684 45.4219 22.388 44.6523 22.2114L43.8502 22.0273C43 21.8322 42.1329 22.2783 41.7974 23.0835C41.4623 23.8878 41.7549 24.8166 42.4906 25.2834L43.1196 25.6826C43.797 26.1125 44.1333 26.908 44.1377 27.7103C44.1419 28.5015 43.806 29.2753 43.1379 29.6992L42.4684 30.1241C41.7425 30.5848 41.4463 31.4963 41.7627 32.2957C42.0846 33.1087 42.9463 33.5706 43.8015 33.3883L44.6094 33.2161C45.3712 33.0538 46.1373 33.3576 46.6999 33.8963C47.276 34.4479 47.5942 35.2523 47.4037 36.0268L47.2117 36.8076C47.0021 37.6602 47.4453 38.5384 48.2559 38.8761C49.0527 39.2081 49.973 38.9206 50.4391 38.194L50.9056 37.4668C51.3322 36.8018 52.1184 36.4707 52.9085 36.4718C53.7111 36.473 54.4938 36.8158 54.918 37.4971L55.3536 38.1968C55.8055 38.9226 56.7118 39.2214 57.5067 38.9067C58.3195 38.585 58.7755 37.7179 58.5799 36.8659L58.3988 36.0765C58.2218 35.3056 58.5275 34.5207 59.073 33.948C59.6151 33.3789 60.4011 33.0611 61.1677 33.2342L62.0411 33.4314C62.8875 33.6226 63.7488 33.1775 64.0825 32.3765C64.419 31.569 64.1207 30.6366 63.3781 30.1742L62.6885 29.7448C62.0216 29.3296 61.6879 28.5487 61.685 27.7631C61.6822 26.9904 62.0075 26.239 62.6579 25.8217L63.4 25.3457C64.1324 24.8758 64.4222 23.9483 64.0875 23.145C63.7511 22.3378 62.8819 21.8906 62.0296 22.0862L61.2423 22.2669C60.4683 22.4445 59.6838 22.1311 59.1323 21.5596C58.5899 20.9975 58.2799 20.2121 58.4574 19.4514L58.6342 18.6937C58.8326 17.8434 58.3874 16.9742 57.5814 16.6384C56.7786 16.3039 55.8515 16.596 55.3855 17.3303L54.9811 17.9676C54.5535 18.6415 53.7595 18.9761 52.9615 18.9797C52.1673 18.9834 51.3937 18.6423 50.974 17.9681L50.5549 17.2951ZM52.9417 23.5468C53.4858 23.5468 54.03 23.6701 54.5669 23.8951C56.7071 24.7947 57.7228 27.2107 56.8305 29.3509C55.9381 31.4912 53.4568 32.5069 51.3166 31.6145C49.1763 30.7221 48.1606 28.2481 49.053 26.1006C49.7277 24.4972 51.302 23.5541 52.9417 23.5468ZM32.4073 32.4851C31.2627 32.4851 30.2869 33.3152 30.1033 34.445L29.9418 35.4388C29.7753 36.4632 28.9884 37.2672 28.0279 37.6604C27.08 38.0484 25.9948 38.0221 25.1605 37.4279L24.3152 36.826C23.3841 36.163 22.1104 36.2693 21.3021 37.0775C20.5002 37.8795 20.3885 39.1409 21.037 40.0712L21.6067 40.8887C22.2026 41.7437 22.2234 42.8496 21.8407 43.8189C21.4535 44.7998 20.6352 45.5959 19.5943 45.765L18.6259 45.9224C17.496 46.106 16.666 47.0818 16.666 48.2264C16.666 49.3604 17.4809 50.3303 18.5979 50.5258L19.6438 50.7088C20.6558 50.8859 21.4432 51.6671 21.8278 52.6198C22.2154 53.5801 22.1967 54.6814 21.596 55.5249L21.011 56.3465C20.3456 57.2809 20.4523 58.5592 21.2634 59.3703C22.0638 60.1707 23.321 60.2865 24.2542 59.6459L25.1515 59.0297C25.993 58.452 27.0768 58.4399 28.0219 58.8254C28.9885 59.2197 29.7759 60.0268 29.9433 61.0573L30.1033 62.0416C30.2869 63.1714 31.2627 64.0015 32.4073 64.0015C33.5413 64.0015 34.5112 63.1865 34.7066 62.0696L34.8876 61.0356C35.0662 60.015 35.8502 59.2143 36.802 58.8049C37.76 58.3928 38.8666 58.4099 39.7203 59.0088L40.6053 59.6296C41.5298 60.2781 42.7865 60.1687 43.585 59.3702C44.3942 58.5611 44.4944 57.2836 43.8214 56.3582L43.2087 55.5158C42.5995 54.6781 42.5684 53.5782 42.9577 52.6183C43.3434 51.6675 44.1341 50.8874 45.1451 50.7126L46.2496 50.5217C47.3665 50.3287 48.1823 49.3597 48.1823 48.2263C48.1823 47.0823 47.3516 46.1076 46.222 45.9263L45.1736 45.758C44.1472 45.5933 43.3404 44.81 42.9481 43.8473C42.5619 42.8997 42.5826 41.8126 43.1703 40.9748L43.8105 40.0622C44.459 39.1377 44.3496 37.8809 43.5511 37.0824C42.742 36.2733 41.4645 36.1731 40.5391 36.8461L39.7091 37.4497C38.8643 38.0642 37.7519 38.0904 36.7928 37.6762C35.8465 37.2675 35.0665 36.4732 34.8888 35.4578L34.7066 34.417C34.5112 33.3001 33.5413 32.4851 32.4073 32.4851ZM32.4532 42.7584C35.4931 42.7584 37.9091 45.1744 37.9091 48.2143C37.9091 51.2542 35.4931 53.7282 32.4532 53.7282C29.4133 53.7282 26.9393 51.2542 26.9393 48.2143C26.9393 45.1744 29.4133 42.7584 32.4532 42.7584Z" fill="#424244"/>
</svg>
