<svg width="81" height="80" viewBox="0 0 81 80" fill="none" xmlns="http://www.w3.org/2000/svg">
<rect x="0.333984" width="80" height="80.0025" rx="40" fill="#ECEEF2"/>
<path d="M21.4545 18.0015L19.334 20.2215L23.0702 26.9871L25.4936 26.6171L40.2869 42.1042L39.0246 43.3727C38.3809 44.0467 38.3809 45.0774 39.0246 45.7513L39.681 46.4384C40.3247 47.1124 41.3156 47.1124 41.8015 46.4384L43.7201 48.447C43.556 49.4645 43.7201 50.667 44.5279 51.5127L53.2625 60.6041C55.0422 62.4673 57.9453 62.4673 59.7251 60.6041C61.8267 58.5757 61.8077 55.543 60.028 53.6798L51.3439 44.5356C50.5361 43.6899 49.3875 43.3529 48.4156 43.6899L46.295 41.6813C46.781 41.0074 46.781 39.9701 46.295 39.4613L45.6892 38.8271C45.0454 38.1531 44.0609 38.1531 43.4172 38.8271L42.3569 39.937L27.5637 24.45L27.9171 21.9129L21.4545 18.0015ZM52.9596 18.0543C49.7725 17.7768 45.5503 19.9902 43.5686 21.9129C41.1389 24.4566 41.5301 27.7932 43.4677 31.0042L40.0344 34.5985L42.4579 37.4528C43.7517 36.2701 45.6576 36.2701 46.9514 37.4528L47.7592 38.2985L49.1729 36.8185C52.0949 38.6156 55.1369 38.8733 57.4531 36.4485C59.7124 34.2483 62.1675 28.8239 61.0378 25.6128L56.4938 30.5285C55.8501 31.2025 54.8655 31.2025 54.2218 30.5285L49.5263 25.6128C48.8826 24.9389 48.8826 23.9082 49.5263 23.2343L54.2218 18.3186C53.8179 18.1733 53.414 18.094 52.9596 18.0543ZM35.1875 39.1442L29.3308 45.2756C28.7249 45.1236 28.0686 45.0642 27.4122 45.0642C22.8871 45.0642 19.334 48.784 19.334 53.5212C19.334 58.2585 22.8871 61.9783 27.4122 61.9783C31.9373 61.9783 35.4904 58.2585 35.4904 53.5212C35.4904 52.6557 35.3579 51.8166 35.137 51.037L38.5702 47.4427L38.0653 46.7556C36.7716 45.4011 36.7842 43.3529 37.9139 41.9985L35.1875 39.1442ZM47.7087 46.8613C47.9107 46.8613 48.1 46.9009 48.2641 47.0727L57.8065 57.0627C58.1284 57.3996 58.1284 57.9414 57.8065 58.2784C57.4846 58.6153 56.9671 58.6153 56.6452 58.2784L47.1029 48.2884C46.781 47.9515 46.781 47.4097 47.1029 47.0727C47.2669 46.9009 47.5068 46.8613 47.7087 46.8613ZM28.523 49.1341L31.6028 52.3584L30.492 56.7455L26.3014 57.9084L23.2216 54.6841L24.3324 50.297L28.523 49.1341Z" fill="#424244"/>
</svg>
