<svg width="81" height="80" viewBox="0 0 81 80" fill="none" xmlns="http://www.w3.org/2000/svg">
<rect x="0.666016" width="80" height="80.0025" rx="40" fill="#ECEEF2"/>
<path d="M40.666 12.0015C25.16 12.0015 12.666 24.4955 12.666 40.0015C12.666 55.5075 25.16 68.0015 40.666 68.0015C56.172 68.0015 68.666 55.5075 68.666 40.0015C68.666 24.4955 56.172 12.0015 40.666 12.0015ZM55.7429 40.8596C55.7429 41.7262 55.5242 42.3741 55.3139 43.2322L52.5122 51.4185C51.8643 53.5724 49.7105 55.0784 47.3463 55.0784H34.2045C29.4677 55.0784 25.5891 51.1998 25.5891 46.463V36.9894C25.5891 34.8356 26.666 32.8921 28.3908 31.6048L42.6011 20.8356C42.6011 20.8356 45.6215 21.475 45.6215 24.2767C45.6215 25.3536 41.7429 31.3861 41.7429 31.3861H51.4352C53.8078 31.3861 55.7429 33.3212 55.7429 35.6938V40.8596Z" fill="#424244"/>
</svg>
