<svg width="136" height="24" viewBox="0 0 136 24" fill="none" xmlns="http://www.w3.org/2000/svg">
<path d="M17.5607 21.0019C17.4008 21.0026 17.2431 20.9648 17.1007 20.8919L12.0007 18.2219L6.90074 20.8919C6.73513 20.979 6.54842 21.0179 6.36182 21.0041C6.17522 20.9904 5.99622 20.9245 5.84517 20.8141C5.69412 20.7037 5.57708 20.5531 5.50735 20.3795C5.43763 20.2058 5.41801 20.0161 5.45074 19.8319L6.45074 14.2019L2.33074 10.2019C2.2022 10.0736 2.11101 9.91278 2.06697 9.73661C2.02292 9.56043 2.02768 9.37559 2.08074 9.20191C2.1387 9.02419 2.24532 8.86627 2.38849 8.74607C2.53166 8.62588 2.70566 8.54822 2.89074 8.52191L8.59074 7.69191L11.1007 2.56191C11.1826 2.39284 11.3105 2.25025 11.4697 2.15049C11.6288 2.05072 11.8129 1.9978 12.0007 1.9978C12.1886 1.9978 12.3727 2.05072 12.5318 2.15049C12.691 2.25025 12.8189 2.39284 12.9007 2.56191L15.4407 7.68191L21.1407 8.51191C21.3258 8.53822 21.4998 8.61588 21.643 8.73607C21.7862 8.85627 21.8928 9.01419 21.9507 9.19191C22.0038 9.36559 22.0086 9.55043 21.9645 9.72661C21.9205 9.90278 21.8293 10.0636 21.7007 10.1919L17.5807 14.1919L18.5807 19.8219C18.6164 20.0094 18.5977 20.2032 18.5269 20.3804C18.456 20.5576 18.3359 20.7108 18.1807 20.8219C17.9997 20.9488 17.7816 21.0121 17.5607 21.0019Z" fill="#FFC042"/>
<path d="M45.5607 21.0019C45.4008 21.0026 45.2431 20.9648 45.1007 20.8919L40.0007 18.2219L34.9007 20.8919C34.7351 20.979 34.5484 21.0179 34.3618 21.0041C34.1752 20.9904 33.9962 20.9245 33.8452 20.8141C33.6941 20.7037 33.5771 20.5531 33.5074 20.3795C33.4376 20.2058 33.418 20.0161 33.4507 19.8319L34.4507 14.2019L30.3307 10.2019C30.2022 10.0736 30.111 9.91278 30.067 9.73661C30.0229 9.56043 30.0277 9.37559 30.0807 9.20191C30.1387 9.02419 30.2453 8.86627 30.3885 8.74607C30.5317 8.62588 30.7057 8.54822 30.8907 8.52191L36.5907 7.69191L39.1007 2.56191C39.1826 2.39284 39.3105 2.25025 39.4697 2.15049C39.6288 2.05072 39.8129 1.9978 40.0007 1.9978C40.1886 1.9978 40.3727 2.05072 40.5318 2.15049C40.691 2.25025 40.8189 2.39284 40.9007 2.56191L43.4407 7.68191L49.1407 8.51191C49.3258 8.53822 49.4998 8.61588 49.643 8.73607C49.7862 8.85627 49.8928 9.01419 49.9507 9.19191C50.0038 9.36559 50.0086 9.55043 49.9645 9.72661C49.9205 9.90278 49.8293 10.0636 49.7007 10.1919L45.5807 14.1919L46.5807 19.8219C46.6164 20.0094 46.5977 20.2032 46.5269 20.3804C46.456 20.5576 46.3359 20.7108 46.1807 20.8219C45.9997 20.9488 45.7816 21.0121 45.5607 21.0019Z" fill="#FFC042"/>
<path d="M73.5607 21.0019C73.4008 21.0026 73.2431 20.9648 73.1007 20.8919L68.0007 18.2219L62.9007 20.8919C62.7351 20.979 62.5484 21.0179 62.3618 21.0041C62.1752 20.9904 61.9962 20.9245 61.8452 20.8141C61.6941 20.7037 61.5771 20.5531 61.5074 20.3795C61.4376 20.2058 61.418 20.0161 61.4507 19.8319L62.4507 14.2019L58.3307 10.2019C58.2022 10.0736 58.111 9.91278 58.067 9.73661C58.0229 9.56043 58.0277 9.37559 58.0807 9.20191C58.1387 9.02419 58.2453 8.86627 58.3885 8.74607C58.5317 8.62588 58.7057 8.54822 58.8907 8.52191L64.5907 7.69191L67.1007 2.56191C67.1826 2.39284 67.3105 2.25025 67.4697 2.15049C67.6288 2.05072 67.8129 1.9978 68.0007 1.9978C68.1886 1.9978 68.3727 2.05072 68.5318 2.15049C68.691 2.25025 68.8189 2.39284 68.9007 2.56191L71.4407 7.68191L77.1407 8.51191C77.3258 8.53822 77.4998 8.61588 77.643 8.73607C77.7862 8.85627 77.8928 9.01419 77.9507 9.19191C78.0038 9.36559 78.0086 9.55043 77.9645 9.72661C77.9205 9.90278 77.8293 10.0636 77.7007 10.1919L73.5807 14.1919L74.5807 19.8219C74.6164 20.0094 74.5977 20.2032 74.5269 20.3804C74.456 20.5576 74.3359 20.7108 74.1807 20.8219C73.9997 20.9488 73.7816 21.0121 73.5607 21.0019Z" fill="#FFC042"/>
<path d="M101.561 21.0019C101.401 21.0026 101.243 20.9648 101.101 20.8919L96.0007 18.2219L90.9007 20.8919C90.7351 20.979 90.5484 21.0179 90.3618 21.0041C90.1752 20.9904 89.9962 20.9245 89.8452 20.8141C89.6941 20.7037 89.5771 20.5531 89.5074 20.3795C89.4376 20.2058 89.418 20.0161 89.4507 19.8319L90.4507 14.2019L86.3307 10.2019C86.2022 10.0736 86.111 9.91278 86.067 9.73661C86.0229 9.56043 86.0277 9.37559 86.0807 9.20191C86.1387 9.02419 86.2453 8.86627 86.3885 8.74607C86.5317 8.62588 86.7057 8.54822 86.8907 8.52191L92.5907 7.69191L95.1007 2.56191C95.1826 2.39284 95.3105 2.25025 95.4697 2.15049C95.6288 2.05072 95.8129 1.9978 96.0007 1.9978C96.1886 1.9978 96.3727 2.05072 96.5318 2.15049C96.691 2.25025 96.8189 2.39284 96.9007 2.56191L99.4407 7.68191L105.141 8.51191C105.326 8.53822 105.5 8.61588 105.643 8.73607C105.786 8.85627 105.893 9.01419 105.951 9.19191C106.004 9.36559 106.009 9.55043 105.965 9.72661C105.92 9.90278 105.829 10.0636 105.701 10.1919L101.581 14.1919L102.581 19.8219C102.616 20.0094 102.598 20.2032 102.527 20.3804C102.456 20.5576 102.336 20.7108 102.181 20.8219C102 20.9488 101.782 21.0121 101.561 21.0019Z" fill="#FFC042"/>
<path d="M129.561 21.0019C129.401 21.0026 129.243 20.9648 129.101 20.8919L124.001 18.2219L118.901 20.8919C118.735 20.979 118.548 21.0179 118.362 21.0041C118.175 20.9904 117.996 20.9245 117.845 20.8141C117.694 20.7037 117.577 20.5531 117.507 20.3795C117.438 20.2058 117.418 20.0161 117.451 19.8319L118.451 14.2019L114.331 10.2019C114.202 10.0736 114.111 9.91278 114.067 9.73661C114.023 9.56043 114.028 9.37559 114.081 9.20191C114.139 9.02419 114.245 8.86627 114.388 8.74607C114.532 8.62588 114.706 8.54822 114.891 8.52191L120.591 7.69191L123.101 2.56191C123.183 2.39284 123.31 2.25025 123.47 2.15049C123.629 2.05072 123.813 1.9978 124.001 1.9978C124.189 1.9978 124.373 2.05072 124.532 2.15049C124.691 2.25025 124.819 2.39284 124.901 2.56191L127.441 7.68191L133.141 8.51191C133.326 8.53822 133.5 8.61588 133.643 8.73607C133.786 8.85627 133.893 9.01419 133.951 9.19191C134.004 9.36559 134.009 9.55043 133.965 9.72661C133.92 9.90278 133.829 10.0636 133.701 10.1919L129.581 14.1919L130.581 19.8219C130.616 20.0094 130.598 20.2032 130.527 20.3804C130.456 20.5576 130.336 20.7108 130.181 20.8219C130 20.9488 129.782 21.0121 129.561 21.0019Z" fill="#FFC042"/>
</svg>
