<svg width="20" height="21" viewBox="0 0 20 21" fill="none" xmlns="http://www.w3.org/2000/svg">
<path fill-rule="evenodd" clip-rule="evenodd" d="M18.3333 20.5024C18.3333 20.5024 20 20.5024 20 18.8358C20 17.1691 18.3333 12.1691 10 12.1691C1.66667 12.1691 0 17.1691 0 18.8358C0 20.5024 1.66667 20.5024 1.66667 20.5024H18.3333ZM1.675 18.9291V18.9258V18.9291ZM1.70333 18.8358H18.2967C18.3045 18.8349 18.3123 18.8338 18.32 18.8324L18.3333 18.8291C18.3317 18.4191 18.0767 17.1858 16.9467 16.0558C15.86 14.9691 13.815 13.8358 10 13.8358C6.18333 13.8358 4.14 14.9691 3.05333 16.0558C1.92333 17.1858 1.67 18.4191 1.66667 18.8291C1.67886 18.8315 1.69109 18.8337 1.70333 18.8358ZM18.3267 18.9291V18.9258V18.9291ZM10 8.83577C10.8841 8.83577 11.7319 8.48459 12.357 7.85946C12.9821 7.23434 13.3333 6.3865 13.3333 5.50244C13.3333 4.61839 12.9821 3.77054 12.357 3.14542C11.7319 2.5203 10.8841 2.16911 10 2.16911C9.11594 2.16911 8.2681 2.5203 7.64298 3.14542C7.01786 3.77054 6.66667 4.61839 6.66667 5.50244C6.66667 6.3865 7.01786 7.23434 7.64298 7.85946C8.2681 8.48459 9.11594 8.83577 10 8.83577ZM15 5.50244C15 6.82852 14.4732 8.10029 13.5355 9.03798C12.5979 9.97566 11.3261 10.5024 10 10.5024C8.67392 10.5024 7.40215 9.97566 6.46447 9.03798C5.52678 8.10029 5 6.82852 5 5.50244C5 4.17636 5.52678 2.90459 6.46447 1.96691C7.40215 1.02923 8.67392 0.502441 10 0.502441C11.3261 0.502441 12.5979 1.02923 13.5355 1.96691C14.4732 2.90459 15 4.17636 15 5.50244Z" fill="#68B12D"/>
</svg>
